<?xml version="1.0" encoding="UTF-8"?>
<svg xmlns="http://www.w3.org/2000/svg" xmlns:xlink="http://www.w3.org/1999/xlink" width="375pt" height="374.999991pt" viewBox="0 0 375 374.999991" version="1.2">
<defs>
<clipPath id="clip1">
  <path d="M 57.109375 193.324219 L 138 193.324219 L 138 310.511719 L 57.109375 310.511719 Z M 57.109375 193.324219 "/>
</clipPath>
<clipPath id="clip2">
  <path d="M 115 187.4375 L 231.539062 187.4375 L 231.539062 310.511719 L 115 310.511719 Z M 115 187.4375 "/>
</clipPath>
<clipPath id="clip3">
  <path d="M 220 144.007812 L 367.222656 144.007812 L 367.222656 310.511719 L 220 310.511719 Z M 220 144.007812 "/>
</clipPath>
<clipPath id="clip4">
  <path d="M 10.742188 203 L 93 203 L 93 310.511719 L 10.742188 310.511719 Z M 10.742188 203 "/>
</clipPath>
<clipPath id="clip5">
  <path d="M 198.417969 284 L 216 284 L 216 310.511719 L 198.417969 310.511719 Z M 198.417969 284 "/>
</clipPath>
</defs>
<g id="surface1">
<g clip-path="url(#clip1)" clip-rule="nonzero">
<path style=" stroke:none;fill-rule:nonzero;fill:rgb(95.689392%,67.449951%,71.759033%);fill-opacity:1;" d="M 60.023438 212.511719 C 60.023438 212.511719 70.949219 192.984375 79.539062 193.378906 C 88.128906 193.769531 134.191406 223.441406 134.191406 223.441406 C 134.191406 223.441406 138.875 257.015625 136.925781 266.386719 C 134.972656 275.757812 124.027344 294.109375 123.449219 296.449219 C 122.871094 298.792969 120.140625 306.625 120.917969 310.519531 C 100.238281 310.519531 57.289062 310.519531 57.289062 310.519531 L 60.023438 212.511719 "/>
</g>
<g clip-path="url(#clip2)" clip-rule="nonzero">
<path style=" stroke:none;fill-rule:nonzero;fill:rgb(95.689392%,67.449951%,71.759033%);fill-opacity:1;" d="M 216.5625 310.515625 L 115.0625 310.515625 L 123.449219 203.566406 C 123.449219 203.566406 144.527344 188.628906 158.363281 187.664062 C 172.203125 186.703125 226.777344 192.339844 226.777344 192.339844 L 231.394531 274.199219 L 225.039062 277.710938 C 225.039062 277.710938 216.171875 306.625 216.5625 310.515625 "/>
</g>
<path style=" stroke:none;fill-rule:nonzero;fill:rgb(95.689392%,67.449951%,71.759033%);fill-opacity:1;" d="M 67.828125 157.953125 C 67.828125 157.953125 54.554688 149.648438 36.988281 149.648438 C 19.421875 149.648438 16.6875 150.144531 15.515625 153.800781 C 14.347656 157.457031 7.710938 168 10.832031 171.121094 C 13.957031 174.246094 19.421875 186.636719 20.984375 187.664062 C 22.542969 188.695312 26.792969 199.007812 38.917969 198.925781 C 51.042969 198.84375 60.472656 198.0625 60.472656 198.0625 L 67.828125 157.953125 "/>
<path style=" stroke:none;fill-rule:nonzero;fill:rgb(95.689392%,67.449951%,71.759033%);fill-opacity:1;" d="M 293.757812 137.625 C 293.757812 137.625 304.789062 128.175781 312.207031 129.738281 C 319.621094 131.296875 319.230469 133.03125 324.695312 133.335938 C 330.164062 133.640625 332.894531 139.109375 333.285156 141.0625 C 333.675781 143.011719 336.019531 150.429688 333.285156 153.554688 C 330.554688 156.675781 294.828125 160.34375 293.757812 137.625 "/>
<g clip-path="url(#clip3)" clip-rule="nonzero">
<path style=" stroke:none;fill-rule:nonzero;fill:rgb(95.689392%,67.449951%,71.759033%);fill-opacity:1;" d="M 233.347656 310.515625 C 233.347656 310.515625 237.644531 302.304688 237.644531 298.011719 C 237.644531 293.71875 236.082031 289.421875 234.910156 289.03125 C 233.738281 288.644531 222.808594 275.757812 220.855469 267.167969 C 218.902344 258.578125 222.679688 217.585938 222.679688 217.585938 C 222.679688 217.585938 244.667969 178.539062 246.230469 174.636719 C 247.792969 170.734375 243.886719 155.113281 250.914062 153.554688 C 257.941406 151.992188 311.421875 135.042969 332.503906 152.109375 C 353.585938 169.167969 347.335938 171.125 351.242188 182.054688 C 355.144531 192.984375 357.203125 213.289062 355.589844 217.976562 C 353.976562 222.660156 357.097656 237.105469 358.269531 245.304688 C 359.441406 253.503906 369.199219 300.378906 366.859375 310.515625 C 334.457031 310.515625 233.347656 310.515625 233.347656 310.515625 "/>
</g>
<path style=" stroke:none;fill-rule:nonzero;fill:rgb(10.5896%,22.749329%,36.468506%);fill-opacity:1;" d="M 112.332031 220.316406 C 108.820312 206.652344 82.269531 198.925781 82.269531 198.925781 C 82.269531 198.925781 49.871094 203.917969 18.640625 295.671875 C 8.882812 286.691406 22.933594 261.054688 22.933594 261.054688 C 22.933594 261.054688 21.765625 265.605469 10.832031 264.042969 C 17.859375 259.75 29.179688 243.742188 24.886719 243.355469 C 20.589844 242.960938 18.640625 253.894531 18.640625 251.160156 C 18.640625 248.429688 19.8125 244.523438 23.324219 239.835938 C 26.839844 235.152344 28.007812 232.808594 28.398438 225.390625 C 28.789062 217.976562 42.0625 203.566406 42.0625 203.566406 C 42.0625 203.566406 38.546875 207.042969 37.769531 203.566406 C 44.796875 202.4375 52.214844 193.769531 52.214844 193.769531 C 52.214844 193.769531 67.4375 170.734375 61.582031 163.96875 C 55.726562 157.203125 55.726562 143.796875 58.847656 135.59375 C 61.972656 127.394531 69.78125 116.460938 77.585938 106.703125 C 85.394531 96.941406 97.292969 96.550781 97.292969 96.550781 C 97.292969 96.550781 106.476562 93.429688 117.015625 96.550781 C 127.554688 99.675781 144.734375 114.121094 147.074219 125.832031 C 149.417969 137.546875 153.304688 164.878906 151.945312 177.371094 C 150.589844 189.863281 148.636719 197.28125 149.808594 208.214844 C 150.976562 219.144531 152.308594 225.390625 152.226562 232.03125 C 152.148438 238.667969 144.734375 245.695312 144.734375 254.671875 C 144.734375 263.65625 149.027344 275.757812 146.292969 282.785156 C 147.085938 274.113281 140.828125 271.855469 140.828125 271.855469 C 140.828125 271.855469 145.265625 285.128906 138.558594 292.9375 C 131.851562 300.746094 134.191406 306.992188 134.191406 306.992188 C 134.191406 306.992188 127.167969 306.210938 125.601562 294.496094 C 124.042969 282.785156 116.234375 281.878906 121.308594 261.054688 C 126.382812 240.226562 112.332031 220.316406 112.332031 220.316406 "/>
<path style=" stroke:none;fill-rule:nonzero;fill:rgb(10.5896%,22.749329%,36.468506%);fill-opacity:1;" d="M 178.695312 83.664062 C 178.695312 83.664062 161.128906 82.496094 158.007812 86.792969 C 154.882812 91.085938 142.742188 111.664062 145.304688 120.863281 C 147.863281 130.058594 149.027344 160.5 149.027344 160.5 C 149.027344 160.5 155.664062 168.78125 158.007812 176.589844 C 160.347656 184.398438 158.007812 188.300781 156.054688 196.113281 C 154.101562 203.917969 157.222656 217.585938 159.566406 219.925781 C 161.910156 222.269531 156.664062 208.777344 161.824219 201.078125 C 166.984375 193.378906 181.816406 189.472656 181.816406 189.472656 C 181.816406 189.472656 186.503906 220.316406 193.53125 226.957031 C 195.089844 217.976562 198.683594 206.652344 198.683594 206.652344 C 198.683594 206.652344 215.855469 159.375 213.476562 143.382812 C 211.09375 127.394531 220.855469 75.46875 178.695312 83.664062 "/>
<path style=" stroke:none;fill-rule:nonzero;fill:rgb(10.5896%,22.749329%,36.468506%);fill-opacity:1;" d="M 201.339844 111.933594 C 201.339844 111.933594 198.605469 87.390625 204.460938 82.792969 C 210.316406 78.199219 213.703125 77.378906 213.703125 77.378906 C 213.703125 77.378906 223.199219 64.535156 233.738281 69.21875 C 244.277344 73.90625 252.867188 79.375 256.378906 80.933594 C 259.894531 82.496094 274.339844 93.035156 275.898438 103.191406 C 277.460938 113.339844 284.089844 128.363281 281.363281 133.542969 C 278.632812 138.71875 254.769531 160.5 254.769531 160.5 C 254.769531 160.5 257.941406 165.269531 257.160156 171.90625 C 256.378906 178.539062 252.476562 196.113281 261.84375 195.722656 C 271.214844 195.328125 274.339844 190.644531 274.339844 190.644531 C 274.339844 190.644531 271.472656 203.609375 263.539062 203.566406 C 255.601562 203.527344 246.585938 222.210938 237.253906 204.25 C 219.296875 205.8125 209.925781 192.152344 209.925781 192.152344 L 205.628906 127.785156 L 201.339844 111.933594 "/>
<path style=" stroke:none;fill-rule:nonzero;fill:rgb(84.709167%,60.778809%,52.549744%);fill-opacity:1;" d="M 191.152344 121.800781 C 199.824219 137.421875 186 171.773438 186 171.773438 C 179.492188 190.515625 186.765625 212.121094 186.765625 212.121094 C 159.695312 209.257812 165.207031 188.953125 165.207031 188.953125 C 165.207031 188.953125 172.710938 187.132812 175.835938 184.792969 C 178.957031 182.449219 178.4375 169.171875 178.4375 169.171875 C 178.4375 169.171875 167.503906 164.488281 164.640625 161.105469 C 161.777344 157.71875 156.054688 145.746094 153.710938 141.320312 C 151.367188 136.898438 152.410156 130.132812 152.410156 130.132812 C 152.410156 130.132812 151.367188 120.242188 152.410156 117.898438 C 153.449219 115.554688 155.792969 104.363281 157.617188 100.714844 C 159.4375 97.074219 169.066406 92.390625 169.066406 92.390625 C 169.066406 92.390625 179.328125 97.839844 191.152344 121.800781 "/>
<path style=" stroke:none;fill-rule:nonzero;fill:rgb(84.709167%,60.778809%,52.549744%);fill-opacity:1;" d="M 320.273438 146.484375 C 320.273438 146.484375 317.410156 133.253906 311.683594 133.515625 C 305.957031 133.773438 282.792969 131.953125 246.621094 136.117188 C 229.238281 138.535156 204.46875 147.652344 204.46875 147.652344 C 204.46875 147.652344 197.863281 150.003906 195.878906 151.554688 C 193.894531 153.105469 191.449219 156.9375 191.449219 157.980469 C 191.449219 159.023438 190.925781 163.1875 191.449219 164.226562 C 188.0625 167.351562 189.625 172.296875 189.625 172.296875 C 189.625 172.296875 188.585938 185.574219 195.347656 186.875 C 202.117188 188.175781 219.035156 188.175781 221.375 184.53125 C 223.71875 180.886719 236.207031 174.378906 236.730469 170.476562 C 237.253906 166.570312 245.324219 163.1875 248.445312 162.925781 C 251.5625 162.664062 276.292969 161.457031 277.589844 160.5 C 278.890625 159.542969 302.3125 143.839844 320.273438 146.484375 "/>
<path style=" stroke:none;fill-rule:nonzero;fill:rgb(84.709167%,60.778809%,52.549744%);fill-opacity:1;" d="M 137.054688 259.488281 C 140.4375 250.382812 137.054688 232.160156 137.054688 232.160156 C 137.054688 232.160156 114.15625 198.0625 94.375 185.570312 C 74.59375 173.078125 62.882812 161.882812 55.335938 158.5 C 47.789062 155.117188 31.65625 168.132812 30.351562 177.503906 C 29.050781 186.871094 36.597656 194.421875 36.597656 194.421875 C 36.597656 194.421875 73.035156 198.847656 85.785156 204.570312 C 98.539062 210.296875 96.976562 215.761719 99.578125 221.226562 C 102.179688 226.695312 112.070312 246.738281 112.070312 246.738281 C 112.070312 246.738281 112.070312 249.859375 113.632812 250.902344 C 107.125 250.640625 106.605469 253.503906 106.605469 253.503906 L 107.644531 255.847656 C 107.644531 255.847656 104.402344 257.40625 104.464844 259.488281 C 104.523438 261.570312 114.933594 265.476562 114.933594 265.476562 C 114.933594 265.476562 112.070312 268.597656 113.894531 269.902344 C 115.714844 271.203125 137.054688 259.488281 137.054688 259.488281 "/>
<path style=" stroke:none;fill-rule:nonzero;fill:rgb(52.938843%,35.289001%,32.548523%);fill-opacity:1;" d="M 125.601562 115.8125 C 125.601562 115.8125 132.371094 115.03125 135.492188 119.457031 C 138.617188 123.878906 141.476562 137.933594 142.261719 140.800781 C 143.042969 143.664062 140.957031 153.554688 140.957031 153.554688 C 140.957031 153.554688 140.179688 156.675781 141.21875 161.363281 C 142.261719 166.046875 136.011719 181.925781 130.546875 191.296875 C 127.167969 202.488281 114.15625 198.0625 114.15625 198.0625 C 114.15625 198.0625 101.660156 180.363281 105.042969 147.304688 C 108.425781 114.25 125.601562 115.8125 125.601562 115.8125 "/>
<g clip-path="url(#clip4)" clip-rule="nonzero">
<path style=" stroke:none;fill-rule:nonzero;fill:rgb(52.938843%,35.289001%,32.548523%);fill-opacity:1;" d="M 75.742188 267.820312 C 71.910156 273.238281 59.5 310.519531 59.5 310.519531 L 10.832031 310.519531 C 10.832031 310.519531 30.613281 257.148438 31.914062 252.722656 C 33.214844 248.300781 33.734375 236.847656 39.722656 227.738281 C 45.707031 218.628906 62.363281 198.324219 81.882812 204.832031 C 81.882812 204.832031 109.667969 219.890625 75.742188 267.820312 "/>
</g>
<path style=" stroke:none;fill-rule:nonzero;fill:rgb(52.938843%,35.289001%,32.548523%);fill-opacity:1;" d="M 221.636719 78.074219 C 221.636719 78.074219 208.882812 83.28125 207.324219 87.707031 C 205.757812 92.128906 200.816406 99.679688 201.335938 104.101562 C 201.859375 108.527344 196.875 113.449219 196.914062 120.242188 C 196.949219 127.03125 200.273438 143.171875 204.980469 145.746094 C 210.296875 148.660156 231.785156 139.761719 231.785156 139.761719 C 231.785156 139.761719 248.703125 127.789062 248.441406 119.457031 C 248.183594 111.132812 240.894531 103.582031 240.117188 94.734375 C 239.332031 85.882812 229.074219 74.429688 221.636719 78.074219 "/>
<path style=" stroke:none;fill-rule:nonzero;fill:rgb(52.938843%,35.289001%,32.548523%);fill-opacity:1;" d="M 242.457031 261.054688 C 242.457031 261.054688 252.085938 246.738281 263.539062 238.929688 C 248.960938 226.433594 236.992188 213.941406 236.992188 213.941406 C 236.992188 213.941406 234.648438 212.121094 234.386719 206.914062 C 234.128906 201.710938 227.882812 193.640625 227.882812 193.640625 C 227.882812 193.640625 221.636719 186.613281 220.855469 182.710938 C 220.074219 178.804688 217.210938 172.296875 217.210938 172.296875 C 217.210938 172.296875 210.183594 163.96875 208.625 163.96875 C 207.0625 163.96875 201.855469 165.53125 202.378906 166.570312 C 202.898438 167.613281 207.0625 171.777344 207.839844 174.117188 C 208.625 176.460938 209.925781 184.792969 209.925781 184.792969 C 209.925781 184.792969 210.453125 187.566406 208.890625 187.609375 C 207.328125 187.652344 202.339844 180.886719 202.339844 180.886719 C 202.339844 180.886719 191.1875 172.035156 189.625 172.296875 C 188.0625 172.558594 185.460938 175.421875 187.023438 179.0625 C 188.585938 182.710938 193.53125 187.664062 193.53125 187.664062 C 193.53125 187.664062 192.582031 187.15625 190.453125 187.664062 C 188.324219 188.175781 184.160156 192.339844 190.40625 197.023438 C 185.460938 198.585938 189.265625 203.53125 189.265625 203.53125 C 189.265625 203.53125 198.210938 212.902344 199.773438 216.804688 C 201.335938 220.710938 211.226562 230.082031 216.691406 231.121094 C 222.15625 232.164062 242.457031 261.054688 242.457031 261.054688 "/>
<path style=" stroke:none;fill-rule:nonzero;fill:rgb(52.938843%,35.289001%,32.548523%);fill-opacity:1;" d="M 277.589844 160.5 C 277.589844 160.5 265 176.289062 256.046875 180.140625 C 258.136719 171.109375 256.046875 162.457031 256.046875 162.457031 L 277.589844 160.5 "/>
<path style=" stroke:none;fill-rule:nonzero;fill:rgb(71.369934%,44.309998%,52.549744%);fill-opacity:1;" d="M 289.953125 306.992188 C 288.824219 306.566406 287.710938 306.082031 286.65625 305.488281 C 285.589844 304.921875 284.546875 304.296875 283.527344 303.644531 C 282.5 303.007812 281.507812 302.316406 280.519531 301.617188 C 279.539062 300.910156 278.558594 300.195312 277.609375 299.453125 C 275.703125 297.96875 273.816406 296.453125 271.988281 294.875 C 270.160156 293.296875 268.34375 291.707031 266.570312 290.066406 C 264.804688 288.425781 263.03125 286.785156 261.3125 285.09375 C 259.585938 283.402344 257.867188 281.714844 256.183594 279.988281 C 254.5 278.261719 252.820312 276.527344 251.179688 274.765625 C 249.546875 273.007812 247.917969 271.246094 246.335938 269.441406 C 244.625 268.242188 242.9375 267.007812 241.242188 265.78125 L 241.117188 265.691406 L 241.152344 265.558594 C 241.574219 264.054688 242.003906 262.550781 242.457031 261.054688 C 242.183594 262.539062 241.890625 264.023438 241.589844 265.503906 C 243.351562 266.585938 245.113281 267.660156 246.855469 268.765625 L 246.890625 268.78125 L 246.933594 268.828125 L 252.03125 273.9375 L 257.160156 279.011719 C 258.878906 280.691406 260.589844 282.382812 262.324219 284.046875 C 264.0625 285.703125 265.789062 287.378906 267.546875 289.015625 C 269.300781 290.65625 271.058594 292.292969 272.839844 293.902344 L 275.53125 296.292969 C 276.429688 297.09375 277.34375 297.871094 278.261719 298.644531 C 279.179688 299.417969 280.097656 300.1875 281.035156 300.9375 C 281.976562 301.683594 282.917969 302.425781 283.878906 303.140625 C 284.835938 303.859375 285.816406 304.554688 286.828125 305.199219 C 287.835938 305.855469 288.875 306.449219 289.953125 306.992188 "/>
<path style=" stroke:none;fill-rule:nonzero;fill:rgb(71.369934%,44.309998%,52.549744%);fill-opacity:1;" d="M 314.175781 276.148438 C 314.175781 276.148438 314.074219 275.917969 313.882812 275.484375 C 313.761719 275.28125 313.621094 275.023438 313.445312 274.734375 C 313.242188 274.457031 313.046875 274.121094 312.773438 273.773438 C 312.261719 273.058594 311.566406 272.246094 310.75 271.332031 C 309.917969 270.4375 308.949219 269.445312 307.875 268.390625 C 305.714844 266.28125 303.097656 263.921875 300.214844 261.488281 C 298.777344 260.269531 297.253906 259.054688 295.707031 257.8125 C 294.160156 256.582031 292.558594 255.367188 290.929688 254.191406 C 289.308594 253.007812 287.660156 251.863281 285.996094 250.816406 C 284.339844 249.792969 282.632812 248.773438 280.996094 248.167969 C 280.804688 248.082031 280.570312 248.019531 280.34375 247.957031 L 280.035156 247.867188 L 279.679688 247.78125 C 279.207031 247.667969 278.746094 247.519531 278.300781 247.351562 C 277.410156 247.015625 276.574219 246.597656 275.804688 246.128906 C 274.261719 245.195312 273.015625 244.042969 271.945312 242.949219 C 270.867188 241.859375 269.988281 240.773438 269.097656 239.976562 C 268.660156 239.582031 268.191406 239.265625 267.734375 239.15625 C 267.566406 239.125 267.382812 239.113281 267.207031 239.113281 C 267.066406 239.113281 266.921875 239.121094 266.785156 239.125 C 266.644531 239.132812 266.511719 239.136719 266.382812 239.136719 C 266.359375 239.136719 266.335938 239.136719 266.316406 239.136719 C 266.140625 239.144531 265.972656 239.148438 265.8125 239.148438 C 265.160156 239.148438 264.632812 239.085938 264.253906 239.054688 C 263.78125 238.996094 263.539062 238.929688 263.539062 238.929688 C 263.539062 238.929688 263.792969 238.96875 264.257812 238.976562 C 264.734375 238.96875 265.425781 238.960938 266.300781 238.851562 C 266.519531 238.828125 266.75 238.804688 266.992188 238.777344 C 267.117188 238.765625 267.21875 238.75 267.375 238.746094 C 267.425781 238.738281 267.476562 238.734375 267.53125 238.734375 C 267.613281 238.734375 267.703125 238.742188 267.800781 238.757812 C 268.398438 238.847656 268.9375 239.175781 269.441406 239.554688 C 270.457031 240.324219 271.421875 241.332031 272.53125 242.339844 C 273.636719 243.351562 274.894531 244.367188 276.355469 245.183594 C 277.089844 245.585938 277.875 245.9375 278.703125 246.207031 C 279.113281 246.347656 279.539062 246.460938 279.972656 246.558594 L 280.300781 246.632812 L 280.667969 246.726562 C 280.898438 246.785156 281.121094 246.832031 281.371094 246.929688 C 283.304688 247.601562 285.011719 248.558594 286.742188 249.609375 C 288.457031 250.664062 290.140625 251.8125 291.792969 253 C 293.3125 254.113281 294.800781 255.261719 296.242188 256.421875 C 296.40625 257.148438 296.5 257.535156 296.5 257.535156 C 296.5 257.535156 296.4375 257.175781 296.332031 256.492188 C 296.417969 256.5625 296.507812 256.632812 296.597656 256.703125 C 298.15625 257.953125 299.640625 259.25 301.066406 260.507812 C 303.769531 262.925781 306.199219 265.308594 308.195312 267.484375 C 308.179688 267.484375 308.167969 267.484375 308.152344 267.484375 C 307.789062 267.484375 307.589844 267.488281 307.589844 267.488281 C 307.589844 267.488281 307.894531 267.585938 308.425781 267.734375 C 308.445312 267.757812 308.464844 267.78125 308.484375 267.800781 C 309.515625 268.925781 310.40625 270.003906 311.171875 270.980469 C 311.921875 271.96875 312.554688 272.847656 313.011719 273.609375 C 313.492188 274.363281 313.773438 275.015625 313.957031 275.449219 C 314.097656 275.90625 314.175781 276.148438 314.175781 276.148438 "/>
<path style=" stroke:none;fill-rule:nonzero;fill:rgb(71.369934%,44.309998%,52.549744%);fill-opacity:1;" d="M 325.476562 281.613281 C 325.476562 281.613281 325.242188 281.324219 324.839844 280.8125 C 324.632812 280.5625 324.386719 280.257812 324.101562 279.90625 C 323.816406 279.5625 323.492188 279.175781 323.140625 278.75 C 322.414062 277.917969 321.59375 276.941406 320.648438 275.957031 C 320.417969 275.710938 320.183594 275.449219 319.9375 275.203125 C 319.6875 274.960938 319.433594 274.714844 319.183594 274.457031 C 318.695312 273.9375 318.136719 273.484375 317.609375 272.988281 C 317.074219 272.507812 316.511719 272.0625 315.964844 271.613281 C 315.378906 271.226562 314.851562 270.765625 314.28125 270.414062 C 313.699219 270.085938 313.175781 269.679688 312.621094 269.414062 C 312.066406 269.15625 311.5625 268.847656 311.0625 268.640625 C 310.558594 268.457031 310.097656 268.265625 309.683594 268.097656 C 309.265625 267.9375 308.886719 267.875 308.578125 267.777344 C 308.527344 267.761719 308.472656 267.746094 308.425781 267.734375 C 307.894531 267.585938 307.589844 267.488281 307.589844 267.488281 C 307.589844 267.488281 307.789062 267.484375 308.152344 267.484375 C 308.167969 267.484375 308.179688 267.484375 308.195312 267.484375 C 308.320312 267.484375 308.460938 267.484375 308.617188 267.484375 C 308.945312 267.507812 309.359375 267.464844 309.8125 267.550781 C 310.261719 267.628906 310.777344 267.71875 311.335938 267.839844 C 311.894531 267.96875 312.46875 268.203125 313.089844 268.417969 C 313.710938 268.636719 314.308594 268.980469 314.949219 269.304688 C 315.578125 269.644531 316.191406 270.058594 316.8125 270.472656 C 317.402344 270.933594 318.011719 271.394531 318.585938 271.886719 C 319.125 272.417969 319.703125 272.910156 320.199219 273.46875 C 320.71875 274 321.1875 274.558594 321.625 275.109375 C 322.085938 275.644531 322.464844 276.210938 322.839844 276.734375 C 323.21875 277.257812 323.527344 277.785156 323.824219 278.261719 C 324.980469 280.191406 325.476562 281.613281 325.476562 281.613281 "/>
<path style=" stroke:none;fill-rule:nonzero;fill:rgb(71.369934%,44.309998%,52.549744%);fill-opacity:1;" d="M 296.5 257.535156 C 296.5 257.535156 296.40625 257.148438 296.242188 256.421875 C 296.066406 255.605469 295.804688 254.359375 295.503906 252.746094 C 295.222656 251.214844 294.890625 249.351562 294.5625 247.207031 C 294.226562 245.0625 293.875 242.636719 293.59375 239.980469 C 293.289062 237.324219 293.035156 234.441406 292.824219 231.382812 C 292.710938 229.855469 292.652344 228.28125 292.5625 226.671875 C 292.507812 225.0625 292.484375 223.417969 292.472656 221.746094 C 292.496094 218.398438 292.570312 214.9375 292.867188 211.425781 C 292.941406 210.535156 292.992188 209.699219 293.085938 208.753906 L 293.28125 207.445312 C 293.335938 207.007812 293.402344 206.570312 293.519531 206.121094 C 293.734375 205.222656 293.921875 204.316406 294.222656 203.460938 L 294.636719 202.164062 L 295.132812 200.898438 C 296.507812 197.539062 298.34375 194.414062 300.359375 191.507812 C 302.378906 188.605469 304.585938 185.917969 306.835938 183.429688 C 309.074219 180.933594 311.394531 178.667969 313.648438 176.589844 C 315.902344 174.507812 318.097656 172.613281 320.167969 170.917969 C 324.296875 167.523438 327.9375 164.953125 330.496094 163.179688 C 333.066406 161.414062 334.589844 160.5 334.589844 160.5 C 334.589844 160.5 333.136719 161.523438 330.664062 163.410156 C 328.179688 165.28125 324.726562 168.074219 320.699219 171.554688 C 316.683594 175.035156 312.195312 179.335938 307.785156 184.28125 C 305.589844 186.757812 303.441406 189.425781 301.492188 192.289062 C 299.542969 195.148438 297.792969 198.214844 296.5 201.449219 L 296.007812 202.660156 L 295.601562 203.898438 C 295.300781 204.71875 295.128906 205.546875 294.921875 206.375 C 294.804688 206.777344 294.734375 207.214844 294.671875 207.652344 L 294.46875 208.960938 C 294.378906 209.773438 294.3125 210.6875 294.230469 211.539062 C 293.90625 215.003906 293.804688 218.433594 293.75 221.75 C 293.753906 223.410156 293.757812 225.042969 293.765625 226.640625 C 293.808594 228.242188 293.820312 229.804688 293.890625 231.324219 C 294.015625 234.371094 294.1875 237.25 294.414062 239.898438 C 294.519531 241.230469 294.640625 242.496094 294.761719 243.703125 C 294.863281 244.914062 294.984375 246.058594 295.101562 247.132812 C 295.332031 249.289062 295.578125 251.160156 295.785156 252.699219 C 296.011719 254.382812 296.207031 255.667969 296.332031 256.492188 C 296.4375 257.175781 296.5 257.535156 296.5 257.535156 "/>
<path style=" stroke:none;fill-rule:nonzero;fill:rgb(71.369934%,44.309998%,52.549744%);fill-opacity:1;" d="M 291.90625 207.054688 C 291.90625 207.054688 291.730469 206.472656 291.429688 205.449219 C 291.265625 204.9375 291.148438 204.300781 290.988281 203.574219 C 290.820312 202.84375 290.71875 202.007812 290.589844 201.09375 C 290.503906 200.175781 290.394531 199.183594 290.398438 198.125 C 290.371094 197.59375 290.386719 197.050781 290.40625 196.496094 C 290.410156 195.9375 290.457031 195.367188 290.515625 194.792969 C 290.5625 194.214844 290.628906 193.628906 290.722656 193.039062 C 290.765625 192.746094 290.808594 192.449219 290.851562 192.148438 C 290.917969 191.851562 290.976562 191.558594 291.039062 191.257812 C 291.28125 190.066406 291.617188 188.871094 291.988281 187.691406 C 292.394531 186.523438 292.84375 185.371094 293.355469 184.265625 C 293.847656 183.152344 294.441406 182.113281 295.019531 181.109375 C 296.207031 179.128906 297.511719 177.40625 298.730469 176.03125 C 299.949219 174.648438 301.074219 173.609375 301.894531 172.925781 C 302.714844 172.238281 303.226562 171.90625 303.226562 171.90625 C 303.226562 171.90625 301.496094 173.632812 299.390625 176.554688 C 298.867188 177.289062 298.316406 178.09375 297.765625 178.964844 C 297.210938 179.824219 296.6875 180.773438 296.144531 181.75 C 295.621094 182.734375 295.117188 183.773438 294.652344 184.847656 C 294.171875 185.914062 293.757812 187.027344 293.386719 188.15625 C 293.015625 189.28125 292.675781 190.421875 292.429688 191.5625 C 292.296875 192.132812 292.171875 192.699219 292.074219 193.265625 C 291.960938 193.824219 291.871094 194.386719 291.804688 194.9375 C 291.765625 195.214844 291.730469 195.488281 291.691406 195.761719 C 291.667969 196.035156 291.640625 196.304688 291.617188 196.570312 C 291.558594 197.105469 291.507812 197.628906 291.496094 198.144531 C 291.429688 199.167969 291.441406 200.136719 291.429688 201.039062 C 291.480469 201.933594 291.472656 202.765625 291.546875 203.496094 C 291.621094 204.226562 291.636719 204.871094 291.714844 205.394531 C 291.835938 206.453125 291.90625 207.054688 291.90625 207.054688 "/>
<path style=" stroke:none;fill-rule:nonzero;fill:rgb(71.369934%,44.309998%,52.549744%);fill-opacity:1;" d="M 288.855469 218.363281 C 288.855469 218.363281 288.609375 217.414062 288.28125 215.730469 C 287.964844 214.046875 287.519531 211.628906 287.164062 208.707031 C 286.984375 207.246094 286.808594 205.65625 286.679688 203.972656 C 286.546875 202.289062 286.429688 200.511719 286.378906 198.667969 C 286.320312 196.824219 286.289062 194.917969 286.34375 192.980469 C 286.398438 191.042969 286.476562 189.074219 286.648438 187.109375 C 286.808594 185.140625 287.0625 183.183594 287.351562 181.261719 C 287.488281 180.304688 287.683594 179.355469 287.855469 178.417969 C 288.0625 177.492188 288.265625 176.570312 288.464844 175.667969 C 288.707031 174.773438 288.917969 173.886719 289.175781 173.03125 C 289.449219 172.183594 289.695312 171.347656 289.980469 170.542969 C 290.277344 169.75 290.546875 168.96875 290.847656 168.226562 C 291.167969 167.496094 291.472656 166.789062 291.769531 166.109375 C 292.105469 165.449219 292.421875 164.8125 292.726562 164.210938 C 293.035156 163.609375 293.390625 163.074219 293.6875 162.554688 C 293.988281 162.035156 294.28125 161.554688 294.585938 161.132812 C 294.878906 160.703125 295.152344 160.3125 295.394531 159.957031 C 295.894531 159.257812 296.351562 158.753906 296.632812 158.394531 C 296.925781 158.039062 297.078125 157.851562 297.078125 157.851562 C 297.078125 157.851562 296.945312 158.058594 296.699219 158.441406 C 296.453125 158.832031 296.078125 159.386719 295.632812 160.117188 C 295.421875 160.488281 295.1875 160.898438 294.933594 161.34375 C 294.671875 161.78125 294.417969 162.277344 294.167969 162.816406 C 293.625 163.871094 293.117188 165.105469 292.546875 166.445312 C 292.296875 167.125 292.039062 167.839844 291.765625 168.574219 C 291.527344 169.320312 291.277344 170.089844 291.023438 170.882812 C 290.785156 171.679688 290.578125 172.515625 290.34375 173.351562 C 290.144531 174.203125 289.9375 175.074219 289.730469 175.957031 C 289.554688 176.851562 289.378906 177.753906 289.199219 178.675781 C 289.0625 179.601562 288.886719 180.53125 288.757812 181.476562 C 288.488281 183.367188 288.257812 185.292969 288.113281 187.234375 C 287.929688 189.164062 287.835938 191.109375 287.757812 193.019531 C 287.703125 194.933594 287.652344 196.820312 287.671875 198.644531 C 287.6875 200.46875 287.710938 202.234375 287.773438 203.910156 C 287.835938 205.582031 287.914062 207.167969 288 208.628906 C 288.191406 211.550781 288.375 213.988281 288.5625 215.691406 C 288.738281 217.390625 288.855469 218.363281 288.855469 218.363281 "/>
<g clip-path="url(#clip5)" clip-rule="nonzero">
<path style=" stroke:none;fill-rule:nonzero;fill:rgb(71.369934%,44.309998%,52.549744%);fill-opacity:1;" d="M 198.683594 310.515625 C 198.683594 310.515625 199.289062 308.617188 200.445312 305.875 C 201.015625 304.5 201.726562 302.917969 202.539062 301.242188 C 202.949219 300.410156 203.363281 299.539062 203.824219 298.679688 C 204.289062 297.820312 204.761719 296.945312 205.234375 296.074219 C 205.726562 295.210938 206.234375 294.351562 206.742188 293.515625 C 207.242188 292.675781 207.785156 291.875 208.304688 291.097656 C 209.351562 289.550781 210.417969 288.15625 211.425781 287.039062 C 211.925781 286.476562 212.421875 285.988281 212.875 285.574219 C 213.109375 285.375 213.332031 285.191406 213.535156 285.023438 C 213.753906 284.867188 213.957031 284.726562 214.136719 284.601562 C 214.519531 284.375 214.824219 284.207031 215.054688 284.140625 C 215.273438 284.066406 215.390625 284.023438 215.390625 284.023438 C 215.390625 284.023438 215.285156 284.089844 215.089844 284.210938 C 214.886719 284.320312 214.636719 284.558594 214.320312 284.832031 C 214.007812 285.125 213.664062 285.511719 213.28125 285.964844 C 212.910156 286.429688 212.511719 286.964844 212.085938 287.566406 C 211.25 288.765625 210.34375 290.21875 209.398438 291.796875 C 208.917969 292.582031 208.457031 293.414062 207.964844 294.242188 C 207.472656 295.078125 206.992188 295.933594 206.515625 296.792969 C 205.550781 298.515625 204.589844 300.230469 203.683594 301.839844 C 202.785156 303.453125 201.9375 304.960938 201.199219 306.246094 C 199.734375 308.824219 198.683594 310.515625 198.683594 310.515625 "/>
</g>
</g>
</svg>
